<svg xmlns="http://www.w3.org/2000/svg" fill-rule="evenodd" clip-rule="evenodd" image-rendering="optimizeQuality" shape-rendering="geometricPrecision" text-rendering="geometricPrecision" viewBox="0 0 126 159"><path fill="#fff" d="M126 131l-7-89c-1-6-6-11-11-11H94C94 14 80 0 63 0S32 14 32 31H18c-6 0-10 5-11 11l-7 89c0 7 2 14 7 19 5 6 12 9 19 9h74c7 0 14-3 19-9 5-5 7-12 7-19zM42 31c0-12 9-22 21-22s21 10 21 22H42zm70 113c-3 4-7 5-12 5H26c-5 0-9-1-12-5-3-3-5-8-5-12l7-90c1-1 1-1 2-1h14v11c0 3 2 5 5 5 2 0 5-2 5-5V41h42v11c0 3 2 5 5 5s5-2 5-5V41h14c1 0 1 0 1 1l7 90c1 4-1 9-4 12z"/></svg>