<svg xmlns="http://www.w3.org/2000/svg" viewBox="0 0 503.217 503.217"><path fill="#fff" d="M182.903 206.882a7.5 7.5 0 0 0-7.5 7.5v8.493c0 4.142 3.357 7.5 7.5 7.5s7.5-3.358 7.5-7.5v-8.493a7.5 7.5 0 0 0-7.5-7.5zM290.093 230.375a7.5 7.5 0 0 0 7.5-7.5v-8.493c0-4.142-3.357-7.5-7.5-7.5s-7.5 3.358-7.5 7.5v8.493c0 4.143 3.357 7.5 7.5 7.5zM244.701 266.708c8.27 0 15.898-4.497 19.91-11.736a7.5 7.5 0 0 0-13.121-7.27 7.768 7.768 0 0 1-6.789 4.006 7.768 7.768 0 0 1-6.78-3.989 7.5 7.5 0 0 0-13.103 7.301 22.78 22.78 0 0 0 19.883 11.688zM157.458 192.446a7.47 7.47 0 0 0 4.728 1.682c2.18 0 4.341-.945 5.823-2.768a18.95 18.95 0 0 1 16.395-6.935c4.122.373 7.769-2.68 8.135-6.806s-2.681-7.768-6.807-8.135a33.93 33.93 0 0 0-29.359 12.411 7.5 7.5 0 0 0 1.085 10.551zM294.291 184.425a18.956 18.956 0 0 1 16.395 6.934 7.484 7.484 0 0 0 5.823 2.768 7.5 7.5 0 0 0 5.814-12.232 33.914 33.914 0 0 0-29.359-12.411c-4.126.367-7.173 4.009-6.807 8.135s4.016 7.179 8.134 6.806z"/><path fill="#fff" d="M426.433 249.794l-22.112-31.605v-9.931a43.344 43.344 0 0 0 2.834-15.435c0-5.563-1.06-10.881-2.969-15.777.086-.454.135-.92.135-1.398v-14.192C404.321 72.429 331.891 0 242.863 0c-38.302 0-75.438 13.65-104.57 38.435a7.502 7.502 0 0 0-.852 10.573 7.499 7.499 0 0 0 10.572.852C174.435 27.38 208.12 15 242.864 15c79.488 0 144.389 63.654 146.407 142.665a43.31 43.31 0 0 0-23.962-8.361c-.51-7.302-3.576-14.102-8.79-19.352-5.777-5.817-13.476-9.021-21.675-9.021H143.79c-16.072 0-29.343 12.562-30.465 28.382a43.24 43.24 0 0 0-16.704 4.217c1.598-30.484 12.408-59.079 31.522-83.128a7.5 7.5 0 0 0-11.742-9.333c-22.895 28.804-34.995 63.517-34.995 100.387v4.194c-5.969 7.456-9.551 16.902-9.551 27.174s3.582 19.717 9.551 27.173v111.618c0 22.75 14.607 42.203 35.381 49.027-.344.64-.687 1.281-1.021 1.93H98.928c-15.749 0-28.562 12.813-28.562 28.562v67.004c0 13.828 11.25 25.078 25.078 25.078H379.02c13.828 0 25.078-11.25 25.078-25.078v-67.004c0-15.749-12.813-28.562-28.562-28.562h-9.09c-.178-.346-.364-.686-.545-1.03 17.142-4.492 30.909-17.507 36.193-34.892a7.47 7.47 0 0 0 .312-2.488c7.124-6.479 11.603-15.818 11.603-26.184 0-3.596-.543-7.067-1.544-10.34l12.161-14.615c10.251-12.319 10.994-30.096 1.807-43.229zm-47.817 88.579c-11.245 0-20.395-9.149-20.395-20.395 0-11.245 9.149-20.394 20.395-20.394s20.395 9.149 20.395 20.394c0 11.246-9.149 20.395-20.395 20.395zm13.539-145.549c0 15.534-12.467 28.202-27.919 28.547.512-4.601.783-9.273.783-14.008l.29-43.046c14.952.892 26.846 13.334 26.846 28.507zM143.79 135.932h191.055c4.174 0 8.092 1.631 11.033 4.591a15.44 15.44 0 0 1 4.516 11.06l-.375 55.729c0 61.249-49.83 111.079-111.08 111.079-61.249 0-111.079-49.83-111.079-111.028l.383-55.99c.057-8.513 7.032-15.441 15.547-15.441zm79.173 197.366a7.486 7.486 0 0 0 1.448-.748c4.769.55 9.614.842 14.528.842 6.189 0 12.273-.456 18.226-1.322.59.493 1.258.895 1.982 1.19v8.342c0 7.726-6.285 14.011-14.01 14.011h-8.163c-7.726 0-14.011-6.285-14.011-14.011zM86.856 192.824c0-14.987 11.604-27.305 26.297-28.465l-.293 42.954c0 4.737.272 9.411.783 14.014-14.925-.921-26.787-13.35-26.787-28.503zm9.55 138.792v-99.604a43.292 43.292 0 0 0 19.013 4.376c.274 0 .549-.023.823-.028 9.226 38.979 36.596 71.014 72.665 86.669-25.606 7.026-48.101 22.565-63.82 44.352-16.611-3.643-28.681-18.342-28.681-35.765zm292.693 79.519v67.004c0 5.557-4.521 10.078-10.078 10.078H95.445c-5.557 0-10.078-4.521-10.078-10.078v-67.004c0-7.478 6.084-13.562 13.562-13.562h80.577c4.143 0 7.5-3.358 7.5-7.5s-3.357-7.5-7.5-7.5h-46.53c16.452-26.786 43.952-44.33 74.988-48.019v7.047c0 15.997 13.015 29.011 29.011 29.011h8.163c15.996 0 29.01-13.014 29.01-29.011v-7.06c31.079 3.661 58.623 21.215 75.093 48.032H209.505c-4.143 0-7.5 3.358-7.5 7.5s3.357 7.5 7.5 7.5h166.032c7.478 0 13.562 6.083 13.562 13.562zm-31.59-43.224c-16.281-22.833-39.969-38.894-66.901-45.598 35.338-15.938 62.062-47.695 71.09-86.176.606.158 1.238.25 1.893.25 9.618 0 18.514-3.139 25.729-8.439v56.295a35.246 35.246 0 0 0-10.704-1.659c-19.517 0-35.395 15.878-35.395 35.394s15.878 35.395 35.395 35.395a35.58 35.58 0 0 0 3.698-.194c-5.799 7.999-14.673 13.405-24.805 14.732zm55.587-84.481l-8.646 10.391-.13-.136v-49.329l9.821 14.037c5.322 7.606 4.892 17.902-1.045 25.037z"/></svg>